<svg width="58" height="58" viewBox="0 0 58 58" fill="none" xmlns="http://www.w3.org/2000/svg">
<mask id="mask0_19_281" style="mask-type:luminance" maskUnits="userSpaceOnUse" x="0" y="0" width="58" height="58">
<path d="M0 0H58V58H0V0Z" fill="white"/>
</mask>
<g mask="url(#mask0_19_281)">
<path d="M58 28.9942C58 36.6807 54.946 44.0662 49.5124 49.4998C44.0798 54.9334 36.6934 57.9873 29.0068 57.9873C12.9828 58 0 45.0182 0 28.9942C0 12.9701 12.9828 0 28.9942 0C36.6934 0 44.0671 3.05494 49.4998 8.48757C54.946 13.9338 58 21.3076 58 28.9942Z" fill="#F4B822"/>
</g>
<path d="M56.698 28.9941C56.698 36.3426 53.7815 43.3782 48.5856 48.573C43.3908 53.7689 36.3425 56.6854 29.0067 56.6854C13.7086 56.6854 1.31445 44.2922 1.31445 28.9941C1.31445 13.6961 13.7086 1.30186 29.0067 1.30186C36.3551 1.30186 43.3908 4.2194 48.5856 9.41426C53.7815 14.6091 56.698 21.6574 56.698 28.9941Z" fill="#934F04"/>
<path d="M38.7337 3.10468L3.09277 38.7456C3.70571 40.3613 4.46969 41.9136 5.37107 43.3782L43.378 5.3703C41.9134 4.46892 40.3484 3.71859 38.7337 3.10468ZM46.621 7.64957L7.66203 46.6076C10.3282 49.8253 13.6832 52.4037 17.4768 54.1441L54.1449 17.476C52.4171 13.6708 49.8377 10.3157 46.621 7.64957C46.7458 7.64957 46.8588 7.74896 46.8588 7.88734C46.8588 7.9497 46.8335 8.01207 46.7955 8.05007C46.7458 8.09977 46.6961 8.11244 46.6327 8.11244C46.5704 8.11244 46.508 8.0871 46.47 8.05007C46.4203 7.9994 46.4076 7.9497 46.4076 7.88734C46.3823 7.74896 46.4953 7.64957 46.621 7.64957ZM51.353 16.7257C51.4778 16.7257 51.5781 16.8251 51.5781 16.9508C51.5781 17.0132 51.5528 17.0755 51.5158 17.1135C51.4778 17.1506 51.4154 17.1759 51.353 17.1759C51.2897 17.1759 51.2273 17.1506 51.1903 17.1135C51.1523 17.0755 51.1269 17.0132 51.1269 16.9508C51.1269 16.8251 51.2273 16.7257 51.353 16.7257Z" fill="#A65905"/>
<path d="M53.1177 28.9941C53.1177 35.3905 50.5763 41.5247 46.0568 46.0443C41.5382 50.5638 35.4039 53.1052 29.0066 53.1052C22.6093 53.1052 16.475 50.5638 11.9555 46.0443C7.42421 41.5247 4.88281 35.3905 4.88281 28.9941C4.88281 15.6859 15.6867 4.88202 28.9939 4.88202C42.3012 4.88202 53.1177 15.6859 53.1177 28.9941Z" fill="#A65C03"/>
<path d="M35.9295 5.90913L5.92188 35.9167C6.43542 37.6064 7.12339 39.2338 7.98774 40.7618L40.7872 7.96233C39.2475 7.11065 37.6202 6.42268 35.9295 5.90913ZM44.0672 10.2026L10.191 44.0788C12.8328 47.3589 16.2746 49.8876 20.2055 51.4272L51.4527 20.1928C49.9003 16.2745 47.3589 12.8317 44.0672 10.2026C44.0916 10.2026 44.1296 10.228 44.1296 10.266C44.1296 10.2903 44.1042 10.3283 44.0672 10.3283C44.0545 10.3283 44.0419 10.3283 44.0292 10.3157C44.0165 10.303 44.0165 10.2903 44.0165 10.2776C44.0165 10.266 44.0165 10.2533 44.0292 10.2406C44.0419 10.2026 44.0545 10.2026 44.0672 10.2026Z" fill="#B66503"/>
<path d="M52.4068 29.2107C52.4068 42.0298 42.0161 52.4205 29.1971 52.4205C23.0375 52.4205 17.141 49.9794 12.7852 45.6226C8.44103 41.2785 6 35.3693 6 29.2107C6 23.0511 8.44103 17.1547 12.7969 12.7978C17.1537 8.442 23.0502 6 29.2097 6C42.0161 6.01267 52.4068 16.4034 52.4068 29.2107Z" fill="#F4B822"/>
<path d="M35.1909 6.66049L6.64795 35.2035C7.12349 36.9059 7.79976 38.5459 8.66411 40.0982L40.1237 8.63768C38.5587 7.78697 36.906 7.12336 35.1909 6.66049ZM43.4164 10.8536L10.8294 43.4406C13.4585 46.7333 16.9509 49.262 20.9073 50.7267L50.7268 20.9071C49.2495 16.9381 46.7208 13.47 43.4164 10.8536Z" fill="#F5C13D"/>
<path d="M32.7127 20.569C33.0499 21.3827 33.2633 22.0463 33.351 22.9477H38.4582L36.5677 26.6652H33.4631C33.0129 30.872 31.0221 33.2877 25.6771 33.2877H25.5894L35.4286 44.2796H28.9562L19.0664 33.2877V29.2066H24.8128C26.1147 29.2066 27.0414 29.0059 27.592 28.6181C28.1679 28.2049 28.5313 27.554 28.6814 26.6652H19.0664L20.7444 22.9594H28.6814C28.5557 22.058 28.2059 21.5951 27.63 21.2073C27.0784 20.7941 26.14 20.5807 24.8001 20.5807H19.0537L20.7317 16.8505H38.9337L36.556 20.5807H32.7127V20.569Z" fill="#8E4F05"/>
</svg>
