<svg width="1796" height="945" viewBox="0 0 1796 945" fill="none" xmlns="http://www.w3.org/2000/svg">
<g filter="url(#filter0_f_122_766)">
<ellipse cx="530.611" cy="329.5" rx="206.186" ry="206.186" transform="rotate(-90 530.611 329.5)" fill="#3C459A" fill-opacity="0.5"/>
</g>
<mask id="mask0_122_766" style="mask-type:alpha" maskUnits="userSpaceOnUse" x="124" y="-169" width="1672" height="997">
<rect x="124.922" y="-169" width="1670.37" height="997" fill="url(#paint0_radial_122_766)"/>
</mask>
<g mask="url(#mask0_122_766)">
<rect x="339.958" y="-152.319" width="161.309" height="161.309" stroke="white" stroke-width="2.04188"/>
<rect x="501.267" y="-152.319" width="161.309" height="161.309" stroke="white" stroke-width="2.04188"/>
<rect x="662.577" y="-152.319" width="161.309" height="161.309" stroke="white" stroke-width="2.04188"/>
<rect x="823.885" y="-152.319" width="161.309" height="161.309" stroke="white" stroke-width="2.04188"/>
<rect x="985.194" y="-152.319" width="161.309" height="161.309" stroke="white" stroke-width="2.04188"/>
<rect x="1146.5" y="-152.319" width="161.309" height="161.309" stroke="white" stroke-width="2.04188"/>
<rect x="1307.81" y="-152.319" width="161.309" height="161.309" fill="white" fill-opacity="0.25" stroke="white" stroke-width="2.04188"/>
<rect x="1469.12" y="-152.319" width="161.309" height="161.309" stroke="white" stroke-width="2.04188"/>
<rect x="1630.43" y="-152.319" width="161.309" height="161.309" stroke="white" stroke-width="2.04188"/>
<rect x="339.958" y="8.98951" width="161.309" height="161.309" stroke="white" stroke-width="2.04188"/>
<rect x="501.267" y="8.98945" width="161.309" height="161.309" stroke="white" stroke-width="2.04188"/>
<rect x="662.577" y="8.98945" width="161.309" height="161.309" stroke="white" stroke-width="2.04188"/>
<rect x="823.885" y="8.98945" width="161.309" height="161.309" stroke="white" stroke-width="2.04188"/>
<rect x="985.194" y="8.98945" width="161.309" height="161.309" stroke="white" stroke-width="2.04188"/>
<rect x="1146.5" y="8.98945" width="161.309" height="161.309" stroke="white" stroke-width="2.04188"/>
<rect x="1307.81" y="8.98945" width="161.309" height="161.309" stroke="white" stroke-width="2.04188"/>
<rect x="1469.12" y="8.98945" width="161.309" height="161.309" stroke="white" stroke-width="2.04188"/>
<rect x="1630.43" y="8.98945" width="161.309" height="161.309" stroke="white" stroke-width="2.04188"/>
<rect x="339.958" y="170.298" width="161.309" height="161.309" stroke="white" stroke-width="2.04188"/>
<rect x="501.267" y="170.298" width="161.309" height="161.309" stroke="white" stroke-width="2.04188"/>
<rect x="662.577" y="170.298" width="161.309" height="161.309" stroke="white" stroke-width="2.04188"/>
<rect x="823.885" y="170.298" width="161.309" height="161.309" stroke="white" stroke-width="2.04188"/>
<rect x="985.194" y="170.298" width="161.309" height="161.309" fill="white" fill-opacity="0.25" stroke="white" stroke-width="2.04188"/>
<rect x="1146.5" y="170.298" width="161.309" height="161.309" stroke="white" stroke-width="2.04188"/>
<rect x="1307.81" y="170.298" width="161.309" height="161.309" fill="white" fill-opacity="0.25" stroke="white" stroke-width="2.04188"/>
<rect x="1469.12" y="170.298" width="161.309" height="161.309" stroke="white" stroke-width="2.04188"/>
<rect x="1630.43" y="170.298" width="161.309" height="161.309" stroke="white" stroke-width="2.04188"/>
<rect x="339.958" y="331.607" width="161.309" height="161.309" stroke="white" stroke-width="2.04188"/>
<rect x="501.267" y="331.607" width="161.309" height="161.309" stroke="white" stroke-width="2.04188"/>
<rect x="662.577" y="331.607" width="161.309" height="161.309" stroke="white" stroke-width="2.04188"/>
<rect x="823.885" y="331.607" width="161.309" height="161.309" stroke="white" stroke-width="2.04188"/>
<rect x="985.194" y="331.607" width="161.309" height="161.309" stroke="white" stroke-width="2.04188"/>
<rect x="1146.5" y="331.607" width="161.309" height="161.309" stroke="white" stroke-width="2.04188"/>
<rect x="1307.81" y="331.607" width="161.309" height="161.309" stroke="white" stroke-width="2.04188"/>
<rect x="1469.12" y="331.607" width="161.309" height="161.309" stroke="white" stroke-width="2.04188"/>
<rect x="1630.43" y="331.607" width="161.309" height="161.309" stroke="white" stroke-width="2.04188"/>
<rect x="339.958" y="492.916" width="161.309" height="161.309" stroke="white" stroke-width="2.04188"/>
<rect x="501.267" y="492.916" width="161.309" height="161.309" stroke="white" stroke-width="2.04188"/>
<rect x="662.577" y="492.916" width="161.309" height="161.309" stroke="white" stroke-width="2.04188"/>
<rect x="823.885" y="492.916" width="161.309" height="161.309" fill="white" fill-opacity="0.25" stroke="white" stroke-width="2.04188"/>
<rect x="985.194" y="492.916" width="161.309" height="161.309" stroke="white" stroke-width="2.04188"/>
<rect x="1146.5" y="492.916" width="161.309" height="161.309" stroke="white" stroke-width="2.04188"/>
<rect x="1307.81" y="492.916" width="161.309" height="161.309" stroke="white" stroke-width="2.04188"/>
<rect x="1469.12" y="492.916" width="161.309" height="161.309" stroke="white" stroke-width="2.04188"/>
<rect x="1630.43" y="492.916" width="161.309" height="161.309" stroke="white" stroke-width="2.04188"/>
<rect x="339.958" y="654.225" width="161.309" height="161.309" stroke="white" stroke-width="2.04188"/>
<rect x="501.267" y="654.225" width="161.309" height="161.309" stroke="white" stroke-width="2.04188"/>
<rect x="662.577" y="654.225" width="161.309" height="161.309" stroke="white" stroke-width="2.04188"/>
<rect x="823.885" y="654.225" width="161.309" height="161.309" stroke="white" stroke-width="2.04188"/>
<rect x="985.194" y="654.225" width="161.309" height="161.309" stroke="white" stroke-width="2.04188"/>
<rect x="1146.5" y="654.225" width="161.309" height="161.309" stroke="white" stroke-width="2.04188"/>
<rect x="1307.81" y="654.225" width="161.309" height="161.309" stroke="white" stroke-width="2.04188"/>
<rect x="1469.12" y="654.225" width="161.309" height="161.309" stroke="white" stroke-width="2.04188"/>
<rect x="1630.43" y="654.225" width="161.309" height="161.309" stroke="white" stroke-width="2.04188"/>
<rect x="339.958" y="815.534" width="161.309" height="161.309" stroke="white" stroke-width="2.04188"/>
<rect x="501.267" y="815.534" width="161.309" height="161.309" stroke="white" stroke-width="2.04188"/>
<rect x="662.577" y="815.534" width="161.309" height="161.309" stroke="white" stroke-width="2.04188"/>
<rect x="823.885" y="815.534" width="161.309" height="161.309" stroke="white" stroke-width="2.04188"/>
<rect x="985.194" y="815.534" width="161.309" height="161.309" stroke="white" stroke-width="2.04188"/>
<rect x="1146.5" y="815.534" width="161.309" height="161.309" stroke="white" stroke-width="2.04188"/>
<rect x="1307.81" y="815.534" width="161.309" height="161.309" stroke="white" stroke-width="2.04188"/>
<rect x="1469.12" y="815.534" width="161.309" height="161.309" stroke="white" stroke-width="2.04188"/>
<rect x="1630.43" y="815.534" width="161.309" height="161.309" stroke="white" stroke-width="2.04188"/>
</g>
<defs>
<filter id="filter0_f_122_766" x="-83.9522" y="-285.063" width="1229.13" height="1229.13" filterUnits="userSpaceOnUse" color-interpolation-filters="sRGB">
<feFlood flood-opacity="0" result="BackgroundImageFix"/>
<feBlend mode="normal" in="SourceGraphic" in2="BackgroundImageFix" result="shape"/>
<feGaussianBlur stdDeviation="204.188" result="effect1_foregroundBlur_122_766"/>
</filter>
<radialGradient id="paint0_radial_122_766" cx="0" cy="0" r="1" gradientUnits="userSpaceOnUse" gradientTransform="translate(960.105 329.5) rotate(90) scale(614.538 1029.59)">
<stop stop-color="#D9D9D9" stop-opacity="0.2"/>
<stop offset="0.802083" stop-color="#D9D9D9" stop-opacity="0"/>
</radialGradient>
</defs>
</svg>
